<svg width="135" height="134" viewBox="0 0 135 134" fill="none" xmlns="http://www.w3.org/2000/svg">
<path fill-rule="evenodd" clip-rule="evenodd" d="M112.758 21.5879C112.758 21.5879 92.5 0.256581 67.5095 0.256831C42.5197 0.256874 22.2615 21.5879 22.2615 21.5879C22.2615 21.5879 22.3657 21.698 22.5687 21.9018C22.4828 21.8159 22.4132 21.748 22.3621 21.6977C22.2918 21.6291 22.2548 21.5946 22.2548 21.5946C22.2548 21.5946 0.923763 41.8528 0.923553 66.8428C0.923763 91.8328 22.2548 112.091 22.2548 112.091C22.2548 112.091 43.586 91.8324 43.5858 66.8428C43.5862 44.0013 25.7655 25.1128 22.7008 22.034C25.7801 25.0982 44.6686 42.9189 67.5097 42.9189C92.4995 42.9189 112.758 21.5879 112.758 21.5879ZM67.5095 133.429C42.5197 133.429 22.2615 112.098 22.2615 112.098C22.2615 112.098 42.52 90.7664 67.5097 90.7666C90.3512 90.7662 109.24 108.587 112.319 111.652C109.254 108.572 91.4335 89.6839 91.4335 66.8428C91.4335 41.8529 112.764 21.5946 112.764 21.5946C112.764 21.5946 134.096 41.8525 134.095 66.8428C134.095 91.8327 112.764 112.091 112.764 112.091C112.764 112.091 112.654 111.987 112.451 111.784C112.653 111.987 112.758 112.098 112.758 112.098C112.758 112.098 92.4995 133.429 67.5095 133.429Z" fill="#111111"/>
</svg>
