<svg width="2343" height="540" viewBox="0 0 2343 540" fill="none" xmlns="http://www.w3.org/2000/svg">
<g clip-path="url(#clip0_54_8)">
<path fill-rule="evenodd" clip-rule="evenodd" d="M397.243 128.421C397.243 128.421 333.937 61.7609 255.842 61.7617C177.749 61.7618 114.442 128.421 114.442 128.421C114.442 128.421 114.768 128.765 115.402 129.402C115.134 129.134 114.916 128.922 114.756 128.764C114.537 128.55 114.421 128.442 114.421 128.442C114.421 128.442 47.7618 191.749 47.7611 269.843C47.7618 347.937 114.421 411.243 114.421 411.243C114.421 411.243 181.081 347.936 181.081 269.843C181.082 198.463 125.392 139.437 115.815 129.815C125.438 139.391 184.464 195.081 255.843 195.081C333.936 195.081 397.243 128.421 397.243 128.421ZM255.842 477.924C177.749 477.924 114.442 411.264 114.442 411.264C114.442 411.264 177.75 344.604 255.843 344.605C327.222 344.604 386.249 400.293 395.871 409.871C386.295 400.248 330.605 341.221 330.605 269.843C330.605 191.749 397.264 128.442 397.264 128.442C397.264 128.442 463.925 191.748 463.923 269.843C463.923 347.936 397.264 411.243 397.264 411.243C397.264 411.243 396.92 410.917 396.283 410.283C396.917 410.92 397.243 411.264 397.243 411.264C397.243 411.264 333.936 477.923 255.842 477.924Z" fill="#111111"/>
</g>
<path d="M718.229 215.247C718.655 204.594 715.544 196.369 708.897 190.574C702.334 184.778 692.405 181.881 679.11 181.881C670.076 181.881 662.235 183.159 655.587 185.716C648.939 188.187 643.612 191.639 639.607 196.071C635.686 200.418 633.257 205.446 632.32 211.156C631.382 215.844 631.681 219.935 633.215 223.429C634.834 226.923 637.348 229.949 640.757 232.506C644.252 234.977 648.385 237.151 653.158 239.026C657.931 240.815 663.002 242.349 668.371 243.628L690.871 249.253C701.865 251.81 711.752 255.219 720.53 259.48C729.394 263.741 736.809 268.983 742.774 275.205C748.826 281.426 753.087 288.756 755.559 297.193C758.03 305.631 758.371 315.304 756.581 326.213C753.854 342.236 747.505 356.128 737.533 367.889C727.561 379.565 714.479 388.642 698.286 395.119C682.093 401.511 663.343 404.707 642.036 404.707C620.899 404.707 603.044 401.469 588.47 394.991C573.897 388.514 563.286 378.926 556.638 366.227C550.076 353.443 548.115 337.634 550.757 318.798H604.323C603.385 327.577 604.664 334.906 608.158 340.787C611.737 346.582 617.064 350.972 624.138 353.955C631.212 356.852 639.522 358.301 649.067 358.301C658.527 358.301 666.922 356.937 674.252 354.21C681.666 351.483 687.675 347.69 692.277 342.832C696.88 337.974 699.692 332.392 700.715 326.085C701.737 320.205 700.843 315.261 698.03 311.256C695.218 307.25 690.701 303.841 684.479 301.028C678.343 298.131 670.715 295.574 661.595 293.358L634.237 286.199C613.101 280.83 597.121 272.435 586.297 261.014C575.473 249.594 571.595 234.21 574.664 214.864C577.391 199.011 583.996 185.162 594.479 173.315C605.047 161.383 618.343 152.136 634.365 145.574C650.473 138.926 668.073 135.602 687.164 135.602C706.595 135.602 723.002 138.969 736.382 145.702C749.763 152.349 759.522 161.639 765.658 173.571C771.794 185.503 773.669 199.395 771.283 215.247H718.229ZM772.112 401L804.839 204.636H859.299L826.572 401H772.112ZM837.694 179.068C829.597 179.068 822.907 176.383 817.623 171.014C812.424 165.56 810.293 159.082 811.231 151.582C812.168 143.912 815.833 137.435 822.225 132.151C828.617 126.781 835.862 124.097 843.958 124.097C852.055 124.097 858.66 126.781 863.774 132.151C868.887 137.435 871.018 143.912 870.166 151.582C869.313 159.082 865.691 165.56 859.299 171.014C852.992 176.383 845.791 179.068 837.694 179.068ZM938.111 478.727C920.383 478.727 905.597 476.298 893.75 471.44C881.989 466.668 873.04 460.148 866.903 451.881C860.852 443.614 857.528 434.324 856.932 424.011L908.58 417.236C909.517 421.241 911.307 424.949 913.949 428.358C916.676 431.767 920.554 434.494 925.582 436.54C930.696 438.585 937.301 439.608 945.398 439.608C957.244 439.608 967.557 436.71 976.335 430.915C985.114 425.205 990.526 415.616 992.571 402.151L998.452 366.227H996.151C992.912 371.682 988.48 376.838 982.855 381.696C977.315 386.554 970.54 390.517 962.528 393.585C954.602 396.653 945.44 398.187 935.043 398.187C920.213 398.187 907.344 394.778 896.435 387.96C885.611 381.057 877.77 370.531 872.912 356.384C868.139 342.151 867.543 324.168 871.122 302.435C874.872 280.19 881.605 261.611 891.321 246.696C901.037 231.781 912.543 220.616 925.838 213.202C939.133 205.787 952.983 202.08 967.386 202.08C978.381 202.08 987.244 203.955 993.977 207.705C1000.8 211.369 1006.04 215.972 1009.7 221.511C1013.37 226.966 1015.97 232.335 1017.5 237.619H1019.67L1025.04 204.636H1079.12L1046.14 402.918C1043.49 419.707 1037.14 433.685 1027.09 444.849C1017.12 456.099 1004.46 464.537 989.119 470.162C973.778 475.872 956.776 478.727 938.111 478.727ZM958.565 357.278C967.258 357.278 975.057 355.105 981.96 350.759C988.949 346.327 994.787 340.02 999.474 331.838C1004.16 323.571 1007.44 313.685 1009.32 302.179C1011.19 290.673 1011.15 280.702 1009.19 272.264C1007.32 263.741 1003.65 257.136 998.196 252.449C992.827 247.761 985.753 245.418 976.974 245.418C967.94 245.418 960.014 247.847 953.196 252.705C946.378 257.477 940.71 264.125 936.193 272.648C931.761 281.17 928.651 291.014 926.861 302.179C924.986 313.514 924.901 323.315 926.605 331.582C928.395 339.764 931.932 346.114 937.216 350.631C942.5 355.062 949.616 357.278 958.565 357.278ZM1081.83 401L1114.56 204.636H1166.34L1160.71 239.281H1162.88C1168.85 227.776 1177.16 218.699 1187.81 212.051C1198.55 205.403 1210.61 202.08 1223.99 202.08C1237.29 202.08 1248.11 205.446 1256.46 212.179C1264.9 218.827 1269.76 227.861 1271.04 239.281H1273.08C1278.88 228.031 1287.61 219.04 1299.29 212.307C1310.97 205.489 1324.01 202.08 1338.41 202.08C1356.56 202.08 1370.46 207.918 1380.09 219.594C1389.72 231.27 1392.74 247.719 1389.16 268.94L1367.17 401H1312.71L1333.17 279.679C1334.79 268.685 1333.17 260.503 1328.31 255.134C1323.45 249.679 1316.68 246.952 1307.98 246.952C1298.1 246.952 1289.87 250.105 1283.31 256.412C1276.75 262.634 1272.7 270.858 1271.17 281.085L1250.84 401H1198.04L1218.75 278.528C1220.2 268.812 1218.62 261.142 1214.02 255.517C1209.5 249.807 1202.73 246.952 1193.69 246.952C1187.73 246.952 1182.06 248.486 1176.69 251.554C1171.41 254.537 1166.93 258.756 1163.27 264.21C1159.6 269.58 1157.22 275.886 1156.11 283.131L1136.17 401H1081.83ZM1457.01 404.707C1444.57 404.707 1433.79 402.534 1424.67 398.187C1415.63 393.756 1408.99 387.193 1404.73 378.5C1400.46 369.807 1399.4 359.026 1401.53 346.156C1403.4 335.247 1406.94 326.128 1412.14 318.798C1417.42 311.384 1423.86 305.418 1431.44 300.901C1439.03 296.384 1447.42 292.932 1456.63 290.545C1465.92 288.159 1475.51 286.54 1485.39 285.687C1496.81 284.494 1506.1 283.344 1513.26 282.236C1520.51 281.128 1525.92 279.551 1529.5 277.506C1533.08 275.375 1535.25 272.222 1536.02 268.045V267.278C1537.3 259.267 1535.81 253.045 1531.54 248.614C1527.37 244.097 1520.68 241.838 1511.47 241.838C1501.76 241.838 1493.49 243.969 1486.67 248.23C1479.94 252.491 1475.12 257.903 1472.23 264.466L1422.62 260.375C1427.06 248.443 1433.75 238.131 1442.69 229.437C1451.73 220.659 1462.59 213.926 1475.29 209.239C1487.99 204.466 1502.23 202.08 1517.99 202.08C1528.9 202.08 1539.09 203.358 1548.55 205.915C1558.09 208.472 1566.32 212.435 1573.22 217.804C1580.21 223.173 1585.24 230.077 1588.31 238.514C1591.46 246.866 1592.1 256.881 1590.22 268.557L1568.11 401H1516.46L1521.06 373.77H1519.53C1515.35 379.906 1510.24 385.318 1504.19 390.006C1498.13 394.608 1491.19 398.23 1483.35 400.872C1475.51 403.429 1466.73 404.707 1457.01 404.707ZM1478.87 367.122C1486.8 367.122 1494.09 365.545 1500.73 362.392C1507.47 359.153 1513.01 354.807 1517.35 349.352C1521.79 343.898 1524.6 337.719 1525.79 330.815L1529.11 309.977C1527.41 311.085 1524.94 312.065 1521.7 312.918C1518.55 313.77 1515.09 314.58 1511.34 315.347C1507.68 316.028 1503.97 316.668 1500.22 317.264C1496.47 317.776 1493.11 318.287 1490.12 318.798C1483.56 319.736 1477.68 321.227 1472.48 323.273C1467.28 325.318 1463.06 328.088 1459.82 331.582C1456.59 334.991 1454.58 339.253 1453.82 344.366C1452.62 351.781 1454.37 357.449 1459.06 361.369C1463.83 365.205 1470.44 367.122 1478.87 367.122ZM1603.1 401L1646.57 139.182H1822.99L1815.32 184.821H1694.25L1684.02 247.207H1796.01L1788.34 292.847H1676.35L1666.13 355.361H1787.7L1780.03 401H1603.1ZM2030.02 204.636L1928.64 401H1867.28L1831.36 204.636H1886.84L1904.23 345.134H1906.27L1970.32 204.636H2030.02ZM2067.09 404.707C2054.65 404.707 2043.87 402.534 2034.75 398.187C2025.72 393.756 2019.07 387.193 2014.81 378.5C2010.55 369.807 2009.48 359.026 2011.61 346.156C2013.49 335.247 2017.02 326.128 2022.22 318.798C2027.51 311.384 2033.94 305.418 2041.53 300.901C2049.11 296.384 2057.51 292.932 2066.71 290.545C2076 288.159 2085.59 286.54 2095.48 285.687C2106.9 284.494 2116.19 283.344 2123.34 282.236C2130.59 281.128 2136 279.551 2139.58 277.506C2143.16 275.375 2145.33 272.222 2146.1 268.045V267.278C2147.38 259.267 2145.89 253.045 2141.63 248.614C2137.45 244.097 2130.76 241.838 2121.55 241.838C2111.84 241.838 2103.57 243.969 2096.75 248.23C2090.02 252.491 2085.21 257.903 2082.31 264.466L2032.71 260.375C2037.14 248.443 2043.83 238.131 2052.78 229.437C2061.81 220.659 2072.68 213.926 2085.38 209.239C2098.07 204.466 2112.31 202.08 2128.07 202.08C2138.98 202.08 2149.17 203.358 2158.63 205.915C2168.17 208.472 2176.4 212.435 2183.3 217.804C2190.29 223.173 2195.32 230.077 2198.39 238.514C2201.54 246.866 2202.18 256.881 2200.3 268.557L2178.19 401H2126.54L2131.14 373.77H2129.61C2125.43 379.906 2120.32 385.318 2114.27 390.006C2108.22 394.608 2101.27 398.23 2093.43 400.872C2085.59 403.429 2076.81 404.707 2067.09 404.707ZM2088.96 367.122C2096.88 367.122 2104.17 365.545 2110.82 362.392C2117.55 359.153 2123.09 354.807 2127.44 349.352C2131.87 343.898 2134.68 337.719 2135.87 330.815L2139.2 309.977C2137.49 311.085 2135.02 312.065 2131.78 312.918C2128.63 313.77 2125.18 314.58 2121.43 315.347C2117.76 316.028 2114.05 316.668 2110.3 317.264C2106.55 317.776 2103.19 318.287 2100.21 318.798C2093.64 319.736 2087.76 321.227 2082.56 323.273C2077.36 325.318 2073.15 328.088 2069.91 331.582C2066.67 334.991 2064.67 339.253 2063.9 344.366C2062.71 351.781 2064.45 357.449 2069.14 361.369C2073.91 365.205 2080.52 367.122 2088.96 367.122ZM2310.09 139.182L2266.62 401H2212.16L2255.63 139.182H2310.09Z" fill="#1E1E1E"/>
<defs>
<clipPath id="clip0_54_8">
<rect width="512" height="512" fill="white" transform="translate(0 14)"/>
</clipPath>
</defs>
</svg>
